<svg width="800" height="800" viewBox="0 0 800 800" fill="none" xmlns="http://www.w3.org/2000/svg">
<g clip-path="url(#clip0_299_2)">
<path fill-rule="evenodd" clip-rule="evenodd" d="M400 750C593.3 750 750 593.25 750 400C750 206.75 593.3 50 400 50C206.7 50 50 206.75 50 400C50 593.25 206.7 750 400 750ZM400 0C620.925 0 800 179 800 400C800 621 620.925 800 400 800C179.075 800 0 621 0 400C0 179 179.075 0 400 0ZM236.625 378L378.025 236.499C387.8 226.749 403.625 226.749 413.375 236.499C423.15 246.499 423.15 262.25 413.375 272L310.35 375H575C588.825 375 600 386.25 600 400C600 413.75 588.825 425 575 425H310.35L413.375 528C423.15 537.75 423.15 553.751 413.375 563.501C403.625 573.251 387.8 573.251 378.025 563.501L236.625 422C230.625 416 228.75 407.75 230.125 400C228.75 392.25 230.625 384 236.625 378Z" fill="#D5D5D5"/>
</g>
<defs>
<clipPath id="clip0_299_2">
<rect width="800" height="800" fill="white" transform="matrix(-1 0 0 1 800 0)"/>
</clipPath>
</defs>
</svg>
