<svg width="800" height="800" viewBox="0 0 800 800" fill="none" xmlns="http://www.w3.org/2000/svg">
<g clip-path="url(#clip0_300_9)">
<path fill-rule="evenodd" clip-rule="evenodd" d="M236.625 422L378.025 563.501C387.8 573.251 403.625 573.251 413.375 563.501C423.15 553.751 423.15 537.75 413.375 528L310.35 425H575C588.825 425 600 413.75 600 400C600 386.25 588.825 375 575 375H310.35L413.375 272C423.15 262.25 423.15 246.499 413.375 236.499C403.625 226.749 387.8 226.749 378.025 236.499L236.625 378C230.625 384 228.75 392.25 230.125 400C228.75 407.75 230.625 416 236.625 422ZM400 0C620.925 0 800 179 800 400C800 621 620.925 800 400 800C179.075 800 0 621 0 400C0 179 179.075 0 400 0Z" fill="#D5D5D5"/>
</g>
<defs>
<clipPath id="clip0_300_9">
<rect width="800" height="800" fill="white" transform="matrix(-1 0 0 1 800 0)"/>
</clipPath>
</defs>
</svg>
